<svg aria-hidden="true" style="position:absolute;width:0;height:0" xmlns="http://www.w3.org/2000/svg" overflow="hidden"><defs><symbol id="basket" viewBox="0 0 38 32"><path d="M37.815 7.814h.002l-5.28 11.733a1.764 1.764 0 01-1.481 1.034h-.006l-15.206 1.013.879 2.509H33.28a3.52 3.52 0 11-3.52 3.522H13.333a3.52 3.52 0 11-3.52-3.522h3.181L6.219 4.745H2.187a1.76 1.76 0 010-3.52h5.28c.768 0 1.414.495 1.655 1.18l.006-.002 1.024 2.929h26.061a1.76 1.76 0 011.598 2.492l.005-.011zM11.386 8.853l3.253 9.295 15.123-1.009 3.729-8.286H11.385z"/></symbol><symbol id="magnifier" viewBox="0 0 32 32"><path d="M30.786 26.636a2.933 2.933 0 11-4.149 4.147l-8.597-8.596a11.542 11.542 0 01-5.95 1.634C5.61 23.821.357 18.568.357 12.088S5.61.355 12.09.355s11.733 5.253 11.733 11.733a11.617 11.617 0 01-1.663 6.003l.029-.053 8.597 8.597zM12.089 3.287a8.802 8.802 0 00.001 17.602h.001a8.8 8.8 0 00-.001-17.6h-.001z"/></symbol><symbol id="facebook" viewBox="0 0 16 32"><path d="M14.879.245v5.072s-3.738-.373-4.674 1.06c-.512.783-.208 3.077-.254 4.724h4.959c-.418 1.925-.719 3.23-1.028 4.896H9.924v15.759h-6.87V16.059H.131v-4.958h2.891c.148-3.626.203-7.217 2.005-9.046C7.05-.002 8.981.246 14.879.246z"/></symbol><symbol id="instagram" viewBox="0 0 32 32"><path d="M27.938 31.754H4.307a3.938 3.938 0 01-3.938-3.938V4.184A3.938 3.938 0 014.307.246h23.631a3.938 3.938 0 013.938 3.938v23.632a3.938 3.938 0 01-3.938 3.938zM16.123 9.894a6.1 6.1 0 00-5.52 3.507l-.016.037h-.006l-.027.068a4.777 4.777 0 00-.143.351l-.014.045c-.023.065-.049.128-.07.192a4.013 4.013 0 00-.109.382l-.008.037c-.017.065-.037.13-.052.197a5.358 5.358 0 00-.072.422l-.003.031c-.009.062-.021.122-.028.185a6.105 6.105 0 1012.136-.028l.003.028c-.007-.063-.02-.123-.028-.185a6.094 6.094 0 00-.082-.493l.007.04c-.015-.066-.034-.132-.052-.197a5.02 5.02 0 00-.128-.457l.011.038c-.021-.064-.047-.127-.07-.192a5.803 5.803 0 00-.174-.436l.016.041-.027-.068h-.006c-.99-2.109-3.095-3.543-5.536-3.545zm12.209-4.529a1.575 1.575 0 00-1.575-1.574h-3.151c-.87 0-1.575.705-1.575 1.574v3.152c0 .87.705 1.575 1.575 1.575h3.151c.87 0 1.575-.705 1.575-1.575V5.365zm0 8.074h-2.905c.22.768.346 1.65.346 2.561 0 5.328-4.32 9.648-9.648 9.648h-.006c-5.328 0-9.648-4.32-9.648-9.648 0-.911.126-1.793.363-2.629l-.016.068H3.913v13.195c0 .87.705 1.575 1.575 1.575h21.268c.87 0 1.575-.705 1.575-1.575V13.439z"/></symbol><symbol id="pinterest" viewBox="0 0 26 32"><path d="M11.14 20.743c-.257 1.025-.517 2.1-.785 3.151-.265 1.036-.498 2.087-.884 3.04-.639 1.577-1.45 3.1-2.514 4.334-.708.821-.558.494-.77.449-.162-.034-.176-.193-.208-.425-.174-1.253-.055-2.702.009-4.11.074-1.605.411-2.939.725-4.272.596-2.54 1.164-5.03 1.766-7.586.039-.17.148-.45.111-.548-.273-.71-.45-1.348-.528-2.094a6.697 6.697 0 01.181-2.438l-.01.046c.341-1.302 1.124-2.455 2.331-2.878.768-.266 1.618-.145 2.135.162.532.319.897.821 1.067 1.534.182.757.048 1.663-.098 2.327-.329 1.5-.761 2.626-1.153 4.074-.194.718-.415 1.455-.233 2.23a2.598 2.598 0 001.042 1.569c.524.382 1.145.59 2 .56 1.511-.053 2.561-1.019 3.263-1.93 1.124-1.458 1.803-3.426 2.062-5.767.082-.756.144-1.623.086-2.479-.108-1.58-.602-2.852-1.387-3.836-.746-.939-1.804-1.685-3.092-2.106-1.276-.416-3.042-.555-4.612-.287-2.853.489-4.864 2.11-6.049 4.348a8.606 8.606 0 00-1.031 4.111v.09-.005c0 1.294.319 2.295.834 3.077.164.247.404.452.564.735.228.401-.034.998-.146 1.433-.135.523-.15 1.246-.761 1.258-.254.005-.571-.18-.785-.299-1.606-.887-2.581-2.502-2.981-4.596-.116-.599-.182-1.288-.182-1.993s.066-1.393.193-2.061l-.011.068a11.408 11.408 0 015.358-7.533l.053-.029C8.074 1.255 9.623.685 11.509.41A19.09 19.09 0 0113.45.249l.035-.001a11.822 11.822 0 015.399 1.027l-.075-.03a10.952 10.952 0 013.66 2.633l.008.009c1.031 1.126 1.782 2.436 2.257 4.073.249.852.49 1.762.49 2.815 0 1.056-.223 1.985-.379 2.914-.583 3.481-2.239 6.327-4.724 7.948a8.055 8.055 0 01-2.101.981l-.058.015c-.821.239-1.758.418-2.761.348a5.622 5.622 0 01-2.469-.725l.028.015c-.665-.375-1.223-.836-1.62-1.531z"/></symbol><symbol id="twitter" viewBox="0 0 38 32"><path d="M25.473.874c2.959-.052 4.534 1.025 6.038 2.396 1.277-.109 2.937-.822 3.914-1.319l.95-.519c-.559 1.508-1.315 2.689-2.479 3.587-.259.198-.515.467-.839.593v.019c1.658-.016 3.025-.765 4.324-1.171v.019c-.682 1.084-1.606 2.185-2.591 2.973l-1.193.947c.022 1.756-.026 3.431-.353 4.906-1.908 8.575-6.964 14.396-14.966 16.89-2.874.895-7.517 1.263-10.81.445-1.632-.404-3.107-.863-4.49-1.468-.85-.369-1.56-.742-2.24-1.16l.077.044-.671-.407c.742.022 1.612.227 2.441.092.752-.121 1.488-.089 2.182-.24 1.728-.38 3.263-.881 4.583-1.655.641-.375 1.615-.815 2.07-1.356-.858.015-1.636-.185-2.273-.409-2.471-.873-3.91-2.477-4.847-4.887.749.083 2.906.278 3.411-.148-.943-.052-1.849-.598-2.497-1.004-1.988-1.244-3.609-3.329-3.597-6.54l.783.371c.5.211 1.008.323 1.603.447.252.052.755.199 1.044.092h-.038c-.384-.447-1.011-.745-1.398-1.226-1.276-1.584-2.47-4.023-1.715-6.929.192-.737.496-1.388.82-1.988l.038.017c.148.311.48.54.689.8.652.807 1.455 1.533 2.273 2.173 2.79 2.182 5.302 3.523 9.337 4.515 1.026.272 2.206.434 3.422.446h.008c-.343-.999-.233-2.618.036-3.585.681-2.435 2.157-4.188 4.324-5.129a8.864 8.864 0 011.635-.51l.061-.011.932-.111z"/></symbol></defs></svg>